<svg xmlns="http://www.w3.org/2000/svg" version="1.1" xmlns:xlink="http://www.w3.org/1999/xlink" xmlns:svgjs="http://svgjs.dev/svgjs" width="1000" height="1000" viewBox="0 0 1000 1000"><rect width="1000" height="1000" fill="#000000"></rect><g transform="matrix(0.7,0,0,0.7,149.57575757575756,415.53957596454535)"><svg xmlns="http://www.w3.org/2000/svg" version="1.1" xmlns:xlink="http://www.w3.org/1999/xlink" xmlns:svgjs="http://svgjs.com/svgjs" viewBox="0 0 396 96" data-background-color="#fb9c89" preserveAspectRatio="xMidYMid meet" height="242" width="1000"><defs></defs><g id="tight-bounds" transform="matrix(1,0,0,1,0.2400000000000091,-0.13576914165497556)"><svg viewBox="0 0 395.52 96.27153828330992" height="96.27153828330992" width="395.52"><g><svg viewBox="0 0 657.9927181747166 160.15870539516683" height="96.27153828330992" width="395.52"><g transform="matrix(1,0,0,1,260.49511817471677,27.070183209349565)"><svg viewBox="0 0 397.4975999999999 106.0183389764677" height="106.0183389764677" width="397.4975999999999"><g><svg viewBox="0 0 397.4975999999999 106.0183389764677" height="106.0183389764677" width="397.4975999999999"><g><rect width="397.4975999999999" height="5.669491725141826" x="0" y="69.54661644334352" fill="#ffffff" opacity="1" stroke-width="0" stroke="transparent" fill-opacity="1" class="rect-borderrectangle-0" data-fill-palette-color="primary" rx="1%" id="borderrectangle-0" data-palette-color="#2b5882"></rect></g><g transform="matrix(1,0,0,1,0.9887999999999693,0)"><svg viewBox="0 0 395.52 62.867895824720954" height="62.867895824720954" width="395.52"><g transform="matrix(1,0,0,1,0,0)"><svg width="395.52" viewBox="2.05 -38 241.88 38.45" height="62.867895824720954" data-palette-color="#2b5882"><path d="M10.9 0.4L10.9 0.4Q8.55 0.4 6.53-0.98 4.5-2.35 3.28-4.58 2.05-6.8 2.05-9.3L2.05-9.3 2.05-14.4Q2.05-17.05 3.28-19.2 4.5-21.35 6.53-22.68 8.55-24 11-24L11-24Q13.4-24 15.08-22.83 16.75-21.65 17.55-20.2L17.55-20.2 17.55-36.55Q17.55-37.2 18.18-37.6 18.8-38 19.7-38L19.7-38Q20.6-38 21.15-37.6 21.7-37.2 21.7-36.55L21.7-36.55 21.7-1.5Q21.7-0.95 21.15-0.48 20.6 0 19.7 0L19.7 0Q18.9 0 18.32-0.48 17.75-0.95 17.75-1.5L17.75-1.5 17.75-3.5Q17-1.95 15.1-0.78 13.2 0.4 10.9 0.4ZM11.9-3.35L11.9-3.35Q13.5-3.35 14.78-4.23 16.05-5.1 16.8-6.2 17.55-7.3 17.55-7.95L17.55-7.95 17.55-14.4Q17.55-16.25 16.73-17.53 15.9-18.8 14.6-19.53 13.3-20.25 11.95-20.25L11.95-20.25Q10.35-20.25 9.05-19.4 7.75-18.55 6.98-17.2 6.2-15.85 6.2-14.4L6.2-14.4 6.2-9.3Q6.2-7.85 6.98-6.45 7.75-5.05 9.05-4.2 10.35-3.35 11.9-3.35ZM38.5 0.4L38.5 0.4Q36.2 0.4 34.32-0.78 32.45-1.95 31.65-3.5L31.65-3.5 31.65-1.5Q31.65-0.95 31.1-0.48 30.55 0 29.7 0L29.7 0Q28.85 0 28.27-0.48 27.7-0.95 27.7-1.5L27.7-1.5 27.7-36.55Q27.7-37.2 28.27-37.6 28.85-38 29.7-38L29.7-38Q30.6-38 31.22-37.6 31.85-37.2 31.85-36.55L31.85-36.55 31.85-20.2Q32.65-21.65 34.32-22.83 36-24 38.4-24L38.4-24Q40.85-24 42.87-22.68 44.9-21.35 46.12-19.2 47.35-17.05 47.35-14.4L47.35-14.4 47.35-9.3Q47.35-6.8 46.12-4.58 44.9-2.35 42.9-0.98 40.9 0.4 38.5 0.4ZM37.5-3.35L37.5-3.35Q39.05-3.35 40.35-4.2 41.65-5.05 42.42-6.45 43.2-7.85 43.2-9.3L43.2-9.3 43.2-14.4Q43.2-15.85 42.42-17.2 41.65-18.55 40.35-19.4 39.05-20.25 37.45-20.25L37.45-20.25Q36.1-20.25 34.8-19.53 33.5-18.8 32.67-17.53 31.85-16.25 31.85-14.4L31.85-14.4 31.85-7.95Q31.85-7.3 32.6-6.2 33.35-5.1 34.65-4.23 35.95-3.35 37.5-3.35ZM61.3 0.4L61.3 0.4Q58.65 0.4 56.4-0.98 54.15-2.35 52.8-4.55 51.45-6.75 51.45-9.3L51.45-9.3 51.45-14.4Q51.45-16.95 52.77-19.13 54.1-21.3 56.35-22.65 58.6-24 61.3-24L61.3-24Q63.95-24 66.2-22.68 68.45-21.35 69.82-19.2 71.2-17.05 71.2-14.4L71.2-14.4 71.2-9.3Q71.2-6.8 69.82-4.58 68.45-2.35 66.2-0.98 63.95 0.4 61.3 0.4ZM61.3-3.35L61.3-3.35Q62.9-3.35 64.17-4.2 65.45-5.05 66.25-6.43 67.05-7.8 67.05-9.3L67.05-9.3 67.05-14.4Q67.05-15.85 66.27-17.2 65.5-18.55 64.2-19.4 62.9-20.25 61.3-20.25L61.3-20.25Q59.7-20.25 58.4-19.4 57.1-18.55 56.35-17.2 55.6-15.85 55.6-14.4L55.6-14.4 55.6-9.3Q55.6-7.8 56.35-6.43 57.1-5.05 58.4-4.2 59.7-3.35 61.3-3.35ZM93.54 0.45L93.54 0.45Q92.94 0.45 92.52 0.23 92.09 0 91.84-0.6L91.84-0.6 84.09-21.2Q83.99-21.45 83.92-21.68 83.84-21.9 83.84-22L83.84-22Q83.84-22.55 84.27-22.95 84.69-23.35 85.29-23.58 85.89-23.8 86.44-23.8L86.44-23.8Q86.89-23.8 87.27-23.6 87.64-23.4 87.79-23L87.79-23 93.79-6.2 98.54-21.35Q98.74-21.9 99.14-22.13 99.54-22.35 100.09-22.35L100.09-22.35Q100.64-22.35 101.07-22.13 101.49-21.9 101.64-21.35L101.64-21.35 106.29-6.05 112.39-23Q112.64-23.8 113.69-23.8L113.69-23.8Q114.24-23.8 114.84-23.58 115.44-23.35 115.87-22.95 116.29-22.55 116.29-22L116.29-22Q116.29-21.85 116.22-21.6 116.14-21.35 116.09-21.2L116.09-21.2 108.29-0.45Q108.09 0.05 107.64 0.25 107.19 0.45 106.64 0.45L106.64 0.45Q105.99 0.45 105.57 0.23 105.14 0 104.94-0.45L104.94-0.45 100.09-15.15 95.34-0.6Q95.14-0.1 94.64 0.18 94.14 0.45 93.54 0.45ZM129.99 0.4L129.99 0.4Q126.74 0.4 124.24-0.83 121.74-2.05 120.29-4.23 118.84-6.4 118.84-9.3L118.84-9.3 118.84-14.55Q118.84-17.1 120.21-19.25 121.59-21.4 123.84-22.7 126.09-24 128.79-24L128.79-24Q131.39-24 133.56-22.8 135.74-21.6 137.06-19.55 138.39-17.5 138.39-14.8L138.39-14.8Q138.39-12.8 137.74-11.93 137.09-11.05 136.09-10.85 135.09-10.65 133.99-10.65L133.99-10.65 122.99-10.65 122.99-9.15Q122.99-6.35 124.99-4.73 126.99-3.1 130.14-3.1L130.14-3.1Q131.99-3.1 133.09-3.6 134.19-4.1 134.89-4.58 135.59-5.05 136.14-5.05L136.14-5.05Q136.69-5.05 137.06-4.73 137.44-4.4 137.64-3.95 137.84-3.5 137.84-3.15L137.84-3.15Q137.84-2.5 136.89-1.68 135.94-0.85 134.16-0.23 132.39 0.4 129.99 0.4ZM122.99-15.25L122.99-13.45 132.24-13.45Q133.59-13.45 134.01-13.78 134.44-14.1 134.44-15.05L134.44-15.05Q134.44-16.55 133.71-17.82 132.99-19.1 131.69-19.9 130.39-20.7 128.74-20.7L128.74-20.7Q127.19-20.7 125.89-19.98 124.59-19.25 123.79-18 122.99-16.75 122.99-15.25L122.99-15.25ZM153.84 0.4L153.84 0.4Q151.54 0.4 149.66-0.78 147.79-1.95 146.99-3.5L146.99-3.5 146.99-1.5Q146.99-0.95 146.44-0.48 145.89 0 145.04 0L145.04 0Q144.19 0 143.61-0.48 143.04-0.95 143.04-1.5L143.04-1.5 143.04-36.55Q143.04-37.2 143.61-37.6 144.19-38 145.04-38L145.04-38Q145.94-38 146.56-37.6 147.19-37.2 147.19-36.55L147.19-36.55 147.19-20.2Q147.99-21.65 149.66-22.83 151.34-24 153.74-24L153.74-24Q156.19-24 158.21-22.68 160.24-21.35 161.46-19.2 162.69-17.05 162.69-14.4L162.69-14.4 162.69-9.3Q162.69-6.8 161.46-4.58 160.24-2.35 158.24-0.98 156.24 0.4 153.84 0.4ZM152.84-3.35L152.84-3.35Q154.39-3.35 155.69-4.2 156.99-5.05 157.76-6.45 158.54-7.85 158.54-9.3L158.54-9.3 158.54-14.4Q158.54-15.85 157.76-17.2 156.99-18.55 155.69-19.4 154.39-20.25 152.79-20.25L152.79-20.25Q151.44-20.25 150.14-19.53 148.84-18.8 148.01-17.53 147.19-16.25 147.19-14.4L147.19-14.4 147.19-7.95Q147.19-7.3 147.94-6.2 148.69-5.1 149.99-4.23 151.29-3.35 152.84-3.35ZM185.63 0.4L185.63 0.4Q183.28 0.4 181.26-0.98 179.23-2.35 178.01-4.58 176.78-6.8 176.78-9.3L176.78-9.3 176.78-14.4Q176.78-17.05 178.01-19.2 179.23-21.35 181.26-22.68 183.28-24 185.73-24L185.73-24Q188.13-24 189.81-22.83 191.48-21.65 192.28-20.2L192.28-20.2 192.28-36.55Q192.28-37.2 192.91-37.6 193.53-38 194.43-38L194.43-38Q195.33-38 195.88-37.6 196.43-37.2 196.43-36.55L196.43-36.55 196.43-1.5Q196.43-0.95 195.88-0.48 195.33 0 194.43 0L194.43 0Q193.63 0 193.06-0.48 192.48-0.95 192.48-1.5L192.48-1.5 192.48-3.5Q191.73-1.95 189.83-0.78 187.93 0.4 185.63 0.4ZM186.63-3.35L186.63-3.35Q188.23-3.35 189.51-4.23 190.78-5.1 191.53-6.2 192.28-7.3 192.28-7.95L192.28-7.95 192.28-14.4Q192.28-16.25 191.46-17.53 190.63-18.8 189.33-19.53 188.03-20.25 186.68-20.25L186.68-20.25Q185.08-20.25 183.78-19.4 182.48-18.55 181.71-17.2 180.93-15.85 180.93-14.4L180.93-14.4 180.93-9.3Q180.93-7.85 181.71-6.45 182.48-5.05 183.78-4.2 185.08-3.35 186.63-3.35ZM212.63 0.4L212.63 0.4Q209.38 0.4 206.88-0.83 204.38-2.05 202.93-4.23 201.48-6.4 201.48-9.3L201.48-9.3 201.48-14.55Q201.48-17.1 202.85-19.25 204.23-21.4 206.48-22.7 208.73-24 211.43-24L211.43-24Q214.03-24 216.2-22.8 218.38-21.6 219.7-19.55 221.03-17.5 221.03-14.8L221.03-14.8Q221.03-12.8 220.38-11.93 219.73-11.05 218.73-10.85 217.73-10.65 216.63-10.65L216.63-10.65 205.63-10.65 205.63-9.15Q205.63-6.35 207.63-4.73 209.63-3.1 212.78-3.1L212.78-3.1Q214.63-3.1 215.73-3.6 216.83-4.1 217.53-4.58 218.23-5.05 218.78-5.05L218.78-5.05Q219.33-5.05 219.7-4.73 220.08-4.4 220.28-3.95 220.48-3.5 220.48-3.15L220.48-3.15Q220.48-2.5 219.53-1.68 218.58-0.85 216.8-0.23 215.03 0.4 212.63 0.4ZM205.63-15.25L205.63-13.45 214.88-13.45Q216.23-13.45 216.65-13.78 217.08-14.1 217.08-15.05L217.08-15.05Q217.08-16.55 216.35-17.82 215.63-19.1 214.33-19.9 213.03-20.7 211.38-20.7L211.38-20.7Q209.83-20.7 208.53-19.98 207.23-19.25 206.43-18 205.63-16.75 205.63-15.25L205.63-15.25ZM233.58 0.45L233.58 0.45Q232.93 0.45 232.4 0.23 231.88 0 231.68-0.45L231.68-0.45 223.48-21.2Q223.43-21.3 223.35-21.55 223.28-21.8 223.28-22L223.28-22Q223.28-22.5 223.7-22.93 224.13-23.35 224.75-23.58 225.38-23.8 225.93-23.8L225.93-23.8Q226.33-23.8 226.73-23.6 227.13-23.4 227.28-23L227.28-23 233.58-6 239.88-22.8Q240.03-23.25 240.35-23.53 240.68-23.8 241.23-23.8L241.23-23.8Q241.73-23.8 242.33-23.58 242.93-23.35 243.43-22.93 243.93-22.5 243.93-22L243.93-22Q243.93-21.75 243.85-21.55 243.78-21.35 243.73-21.2L243.73-21.2 235.53-0.45Q235.33-0.05 234.78 0.2 234.23 0.45 233.58 0.45Z" opacity="1" transform="matrix(1,0,0,1,0,0)" fill="#ffffff" class="undefined-text-0" data-fill-palette-color="primary" id="text-0"></path></svg></g></svg></g><g transform="matrix(1,0,0,1,0,81.89482878710793)"><svg viewBox="0 0 300.5952 24.12351018935978" height="24.12351018935978" width="300.5952"><g transform="matrix(1,0,0,1,0,0)"><svg width="300.5952" viewBox="1.5 -35.1 443.56 35.6" height="24.12351018935978" data-palette-color="#1d77cc"><path d="M8.55 0L1.5-34.6 5.5-34.6 11.4-3.4 12.85-3.4 19.9-34.3 24.4-34.3 31.45-3.4 32.9-3.4 38.8-34.6 42.75-34.6 35.75 0 28.7 0 22.15-29.55 15.6 0 8.55 0ZM69.6 0L48.55 0 48.55-34.6 69.6-34.6 69.6-31.2 52.4-31.2 52.4-19.25 66.6-19.25 66.6-15.9 52.4-15.9 52.4-3.4 69.6-3.4 69.6 0ZM76.2 0L76.2-34.6 88.75-34.6Q93.9-34.6 96.47-32.48 99.05-30.35 99.05-25.8L99.05-25.8Q99.05-22.55 97.92-20.73 96.8-18.9 94.6-17.85L94.6-17.85Q100.1-15.95 100.1-9.7L100.1-9.7Q100.1-4.5 97.35-2.25 94.6 0 89.4 0L89.4 0 76.2 0ZM89-15.9L89-15.9 80.05-15.9 80.05-3.4 89.25-3.4Q92.65-3.4 94.42-4.83 96.2-6.25 96.2-9.85L96.2-9.85Q96.2-11.75 95.47-13.05 94.75-14.35 93.55-14.9L93.55-14.9Q91.35-15.9 89-15.9ZM88.6-31.2L88.6-31.2 80.05-31.2 80.05-19.25 88.95-19.25Q92.15-19.25 93.62-20.78 95.1-22.3 95.1-25.38 95.1-28.45 93.52-29.83 91.95-31.2 88.6-31.2ZM130.34 0L130.34 0 117.99 0 117.99-34.6 130.34-34.6Q138.79-34.6 141.54-27.9L141.54-27.9Q143.14-24.05 143.14-17.8L143.14-17.8Q143.14-4.75 136.64-1.35L136.64-1.35Q134.04 0 130.34 0ZM139.19-17.8L139.19-17.8Q139.19-27.75 134.74-30.2L134.74-30.2Q132.94-31.2 130.34-31.2L130.34-31.2 121.84-31.2 121.84-3.4 130.34-3.4Q139.19-3.4 139.19-17.8ZM171.29 0L150.24 0 150.24-34.6 171.29-34.6 171.29-31.2 154.09-31.2 154.09-19.25 168.29-19.25 168.29-15.9 154.09-15.9 154.09-3.4 171.29-3.4 171.29 0ZM189.59-3.4L197.54-34.6 201.54-34.6 192.49 0 183.89 0 174.84-34.6 178.84-34.6 186.79-3.4 189.59-3.4ZM228.03 0L206.98 0 206.98-34.6 228.03-34.6 228.03-31.2 210.83-31.2 210.83-19.25 225.03-19.25 225.03-15.9 210.83-15.9 210.83-3.4 228.03-3.4 228.03 0ZM253.68-3.45L253.68 0 234.63 0 234.63-34.6 238.48-34.6 238.48-3.45 253.68-3.45ZM260.13-17.15Q260.13-9.55 262.13-6.23 264.13-2.9 269.85-2.9 275.58-2.9 277.55-6.15 279.53-9.4 279.53-17.05 279.53-24.7 277.48-28.2 275.43-31.7 269.8-31.7 264.18-31.7 262.15-28.23 260.13-24.75 260.13-17.15ZM283.53-17.05Q283.53-7.8 280.58-3.65 277.63 0.5 269.85 0.5 262.08 0.5 259.13-3.75 256.18-8 256.18-17.13 256.18-26.25 259.18-30.68 262.18-35.1 269.83-35.1 277.48-35.1 280.5-30.7 283.53-26.3 283.53-17.05ZM303.23-11.65L303.23-11.65 294.43-11.65 294.43 0 290.58 0 290.58-34.6 303.23-34.6Q308.88-34.6 311.58-31.85 314.28-29.1 314.28-23.45L314.28-23.45Q314.28-11.65 303.23-11.65ZM294.43-31.2L294.43-15.05 303.18-15.05Q310.33-15.05 310.33-23.45L310.33-23.45Q310.33-27.45 308.63-29.33 306.93-31.2 303.18-31.2L303.18-31.2 294.43-31.2ZM324.07 0L320.22 0 320.22-34.6 327.17-34.6 336.97-5.35 346.77-34.6 353.72-34.6 353.72 0 349.87 0 349.87-30.5 349.17-30.5 339.12-1.25 334.82-1.25 324.77-30.5 324.07-30.5 324.07 0ZM383.27 0L362.22 0 362.22-34.6 383.27-34.6 383.27-31.2 366.07-31.2 366.07-19.25 380.27-19.25 380.27-15.9 366.07-15.9 366.07-3.4 383.27-3.4 383.27 0ZM393.72 0L389.87 0 389.87-34.6 397.07-34.6 410.32-3.4 411.37-3.4 411.37-34.6 415.17-34.6 415.17 0 408.12 0 394.67-31.2 393.72-31.2 393.72 0ZM430.72-31.15L420.06-31.15 420.06-34.6 445.06-34.6 445.06-31.15 434.52-31.15 434.52 0 430.72 0 430.72-31.15Z" opacity="1" transform="matrix(1,0,0,1,0,0)" fill="#ffffff" class="undefined-text-1" data-fill-palette-color="secondary" id="text-1"></path></svg></g></svg></g></svg></g></svg></g><g><svg viewBox="0 0 245.65351679999995 160.15870539516683" height="160.15870539516683" width="245.65351679999995"><g><svg xmlns:x="http://ns.adobe.com/Extensibility/1.0/" xmlns:i="http://ns.adobe.com/AdobeIllustrator/10.0/" xmlns:graph="http://ns.adobe.com/Graphs/1.0/" xmlns="http://www.w3.org/2000/svg" xmlns:xlink="http://www.w3.org/1999/xlink" xmlns:a="http://ns.adobe.com/AdobeSVGViewerExtensions/3.0/" version="1.1" x="0" y="0" viewBox="0 17.401893280524696 100 65.19699269176792" enable-background="new 0 0 100 100" xml:space="preserve" height="160.15870539516683" width="245.65351679999995" class="icon-icon-0" data-fill-palette-color="accent" id="icon-0"><path d="M70.79 38.18l5.458-9.459-14.893-8.599c-9.7-5.599-22.125-2.279-27.729 7.43l3.25 1.877c2.583-4.484 8.317-6.02 12.804-3.432l4.867 2.808-11.725 20.31L41.2 48.181 26.199 74.158c-1.552 2.691-0.634 6.133 2.057 7.684 2.697 1.558 6.136 0.633 7.688-2.061l14.995-25.976-1.617-0.937 11.724-20.31L70.79 38.18z" fill="#ffffff" data-fill-palette-color="accent"></path><path d="M20.633 63.435c-0.473 0-0.95-0.12-1.384-0.369L1.389 52.754C0.527 52.257 0 51.34 0 50.347s0.527-1.91 1.389-2.406l17.86-10.311c1.324-0.767 3.023-0.312 3.792 1.017 0.771 1.329 0.315 3.027-1.015 3.794L8.333 50.347l13.693 7.906c1.33 0.765 1.785 2.463 1.015 3.792C22.526 62.938 21.592 63.435 20.633 63.435z" fill="#ffffff" data-fill-palette-color="accent"></path><path d="M79.361 66.212c-0.959 0-1.893-0.497-2.408-1.389-0.765-1.329-0.31-3.028 1.02-3.792l13.694-7.906L77.973 45.22c-1.329-0.768-1.784-2.466-1.02-3.794 0.771-1.329 2.468-1.784 3.797-1.017l17.861 10.311c0.857 0.497 1.389 1.414 1.389 2.406s-0.531 1.91-1.389 2.405L80.75 65.843C80.312 66.093 79.834 66.212 79.361 66.212z" fill="#ffffff" data-fill-palette-color="accent"></path></svg><g></g></g></svg></g></svg></g></svg><rect width="395.52" height="96.27153828330992" fill="none" stroke="none" visibility="hidden"></rect></g></svg></g></svg>